<?xml version="1.0" encoding="UTF-8"?><svg width="576px" height="379px" viewBox="0 0 576 379" version="1.1" xmlns="http://www.w3.org/2000/svg" xmlns:xlink="http://www.w3.org/1999/xlink">        <title>visa</title>    <desc>Created with Sketch.</desc>    <defs></defs>    <g id="Page-1" stroke="none" stroke-width="1" fill="none" fill-rule="evenodd">        <g id="visa" fill-rule="nonzero">            <rect id="Rectangle" fill="#26337A" x="0" y="0" width="576" height="379" rx="52"></rect>            <polyline id="Fill-3" fill="#FFFFFE" points="221 268 242.551193 111 277 111 255.450779 268 221 268"></polyline>            <path d="M394.521981,117.372229 C387.041557,114.324056 375.276713,111 360.620968,111 C323.216683,111 296.886975,131.610494 296.668427,161.123269 C296.430403,182.953929 315.457123,195.128678 329.801274,202.384631 C344.543574,209.822263 349.496623,214.581808 349.438199,221.232164 C349.336499,231.403955 337.671191,236.064812 326.793525,236.064812 C311.646587,236.064812 303.599234,233.770272 291.157105,228.100087 L286.290611,225.682183 L281,259.67862 C289.82201,263.908829 306.176377,267.580544 323.149604,267.773438 C362.901664,267.773438 388.731522,247.41191 389.034462,215.89618 C389.170785,198.585068 379.089414,185.463793 357.256183,174.630332 C344.03507,167.587459 335.920638,162.922117 336.013683,155.794012 C336.022339,149.482343 342.868755,142.724326 357.68679,142.724326 C370.061839,142.517974 379.020171,145.474187 386.000746,148.560489 L389.397988,150.296535 L394.521981,117.372229" id="Fill-4" fill="#FFFFFE"></path>            <path d="M448.358012,212.244444 C451.588731,203.214415 463.887308,168.33094 463.887308,168.33094 C463.659888,168.746246 467.100189,159.231306 469.068942,153.342761 L471.699894,166.892446 C471.699894,166.892446 479.180265,204.390732 480.720932,212.244444 L448.358012,212.244444 Z M496.450892,111 L466.324282,111 C456.979949,111 449.985635,113.779542 445.892054,124.02301 L388,268 L428.944721,268 C428.944721,268 435.624659,248.631377 437.140801,244.38086 C441.606726,244.38086 481.392046,244.462065 487.070886,244.462065 C488.239206,249.944582 491.817744,268 491.817744,268 L528,268 L496.450892,111 Z" id="Fill-5" fill="#FFFFFE"></path>            <path d="M189.955068,111 L151.121146,218.219965 L146.961584,196.424797 C139.7249,171.312973 117.197912,144.094561 92,130.456323 L127.527604,268 L169.518073,267.974452 L232,111 L189.955068,111" id="Fill-6" fill="#FFFFFE"></path>            <path d="M113.918551,111 L47.546138,111 L47,114.314533 C98.6454806,127.565579 132.816855,159.550943 147,198 L132.576743,124.496741 C130.088513,114.35942 122.856874,111.35437 113.918551,111" id="Fill-7" fill="#FFFFFF"></path>        </g>    </g></svg>