<svg width="125" height="133" viewBox="0 0 125 133" fill="none" xmlns="http://www.w3.org/2000/svg">
    <g clip-path="url(#clip0_2247_3053)">
        <path opacity="0.07" d="M118.052 124.209C118.052 129.058 91.7387 133 59.2711 133C26.8034 133 0.5 129.058 0.5 124.209C0.5 119.36 26.8133 115.415 59.281 115.415C91.7486 115.415 118.062 119.357 118.062 124.209H118.052Z" fill="#242C89"/>
        <path d="M14.8842 71.1455C14.8248 100.395 32.5056 124.14 54.3773 124.183L67.5768 124.209L67.5834 121.184C82.9774 113.942 94.0354 94.3608 94.0816 71.3044L14.8842 71.1455Z" fill="#BF1C53"/>
        <path d="M20.6359 98.7696L88.2176 98.9053C91.9168 90.8723 94.0617 81.4259 94.0816 71.3044L14.8842 71.1455C14.8644 81.2637 16.9697 90.72 20.6359 98.7696Z" fill="#BA4A09"/>
        <path d="M94.0817 71.3038C94.1279 48.2473 83.1458 28.6199 67.7815 21.3184L67.7881 18.2931L54.5886 18.2667C32.7202 18.2236 14.9437 41.8957 14.8843 71.1449L94.0817 71.3038Z" fill="#BA4A09"/>
        <path d="M94.0816 71.3038C94.1278 48.2473 83.1457 28.6199 67.7814 21.3184L67.788 18.2931L54.5885 18.2667C32.7201 18.2236 14.9436 41.8957 14.8842 71.1449C14.8248 100.394 32.5056 124.139 54.3773 124.182L67.5768 124.209L67.5834 121.183C82.9774 113.941 94.0354 94.3603 94.0816 71.3038Z" fill="#A44209"/>
        <mask id="mask0_2247_3053" style="mask-type:luminance" maskUnits="userSpaceOnUse" x="14" y="18" width="81" height="107">
            <path d="M94.0816 71.3038C94.1278 48.2473 83.1457 28.6199 67.7814 21.3184L67.788 18.2931L54.5885 18.2667C32.7201 18.2236 14.9436 41.8957 14.8842 71.1449C14.8248 100.394 32.5056 124.139 54.3773 124.182L67.5768 124.209L67.5834 121.183C82.9774 113.941 94.0354 94.3603 94.0816 71.3038Z" fill="white"/>
        </mask>
        <g mask="url(#mask0_2247_3053)">
            <path d="M14.7892 117.476L14.7842 120.124L80.7819 120.251L80.7869 117.603L14.7892 117.476Z" fill="white"/>
            <path d="M14.8091 107.547L14.8041 110.195L80.8018 110.322L80.8068 107.675L14.8091 107.547Z" fill="white"/>
            <path d="M14.8422 90.9996L14.8372 93.6475L80.8349 93.7746L80.8399 91.1267L14.8422 90.9996Z" fill="white"/>
            <path d="M14.8873 69.816L14.8822 72.4639L28.0817 72.4893L28.0868 69.8414L14.8873 69.816Z" fill="white"/>
            <path d="M14.925 48.6383L14.9199 51.2861L80.9176 51.4132L80.9227 48.7653L14.925 48.6383Z" fill="white"/>
            <path d="M14.9609 32.0875L14.9558 34.7354L76.9936 34.8548L76.9987 32.2069L14.9609 32.0875Z" fill="white"/>
            <path d="M14.9778 22.1607L14.9728 24.8086L80.9705 24.9357L80.9755 22.2878L14.9778 22.1607Z" fill="white"/>
        </g>
        <path d="M67.7947 18.294C45.9197 18.251 28.1432 41.9264 28.0838 71.1789C28.0244 100.415 45.7085 124.163 67.5835 124.209C89.4584 124.252 107.225 100.577 107.281 71.3411C107.341 42.0886 89.6663 18.3403 67.7947 18.2973" fill="#FFD8A0"/>
        <path d="M67.2799 47.7943C66.8113 47.7943 66.346 48.1352 66.1315 48.8105L61.736 62.8012L50.4933 64.999C49.4473 65.2042 49.0645 66.9617 49.863 67.8885L58.4527 77.7949L56.5288 92.7587C56.3968 93.8378 57.0436 94.6983 57.7597 94.7016C57.9709 94.7016 58.1887 94.6288 58.3966 94.46L68.1015 86.5693L78.1563 93.6358C78.3444 93.7682 78.5391 93.8278 78.7239 93.8278C79.4697 93.8278 80.123 92.8878 79.9283 91.7923L77.3412 77.0104L85.4689 66.4057C86.2278 65.4094 85.7626 63.6816 84.7066 63.5757L73.3946 62.318L68.3754 48.7078C68.151 48.0955 67.7121 47.791 67.2733 47.791" fill="white"/>
        <path d="M97.8534 71.3105C97.8468 75.0639 97.4904 78.7048 96.8271 82.1702" stroke="white" stroke-width="8" stroke-miterlimit="10" stroke-linecap="round"/>
        <path d="M93.3392 93.4766C90.7587 99.3218 87.1948 104.227 82.9775 107.732" stroke="white" stroke-width="8" stroke-miterlimit="10" stroke-linecap="round"/>
        <path d="M78.0672 111.013C74.8036 112.704 71.2761 113.624 67.6 113.618" stroke="white" stroke-width="8" stroke-miterlimit="10" stroke-linecap="round"/>
        <path d="M67.7683 28.8848C84.4064 28.9179 97.8996 47.9495 97.8534 71.3105" stroke="white" stroke-width="8" stroke-miterlimit="10" stroke-linecap="round"/>
        <path d="M37.5116 71.188C37.5281 63.1682 39.1384 55.6681 41.917 49.2734" stroke="white" stroke-width="8" stroke-miterlimit="10" stroke-linecap="round"/>
        <path d="M48.3848 38.7449C53.6415 32.5786 60.403 28.8716 67.7683 28.8848" stroke="white" stroke-width="8" stroke-miterlimit="10" stroke-linecap="round"/>
        <path d="M67.6 113.617C50.9619 113.584 37.4687 94.5524 37.5149 71.1914" stroke="white" stroke-width="8" stroke-miterlimit="10" stroke-linecap="round"/>
        <path d="M33.8354 98.7956C40.7652 114.008 53.2751 124.179 67.5834 124.209C89.4584 124.252 107.225 100.576 107.281 71.3403C107.301 61.1459 105.163 51.6235 101.45 43.5342L33.8354 98.7956Z" fill="#FFC36C"/>
        <path d="M84.7099 63.5787L77.856 62.8174L58.3273 78.7775L56.5288 92.7584C56.3968 93.8374 57.0436 94.6979 57.7597 94.7012C57.9709 94.7012 58.1887 94.6284 58.3966 94.4596L68.1016 86.5689L78.1563 93.6355C78.3444 93.7679 78.5391 93.8274 78.7239 93.8274C79.4697 93.8274 80.1231 92.8874 79.9284 91.7919L77.3412 77.0101L85.4689 66.4053C86.2279 65.409 85.7626 63.6813 84.7066 63.5753L84.7099 63.5787Z" fill="#FFEABB"/>
        <path d="M93.8704 92.2721C93.2038 91.9776 92.425 92.2788 92.128 92.9474C90.5045 96.6213 88.4949 99.9014 86.1486 102.695C85.6801 103.254 85.7494 104.088 86.307 104.562C86.5545 104.77 86.8548 104.873 87.1551 104.873C87.5313 104.873 87.9075 104.714 88.1682 104.403C90.6728 101.417 92.8177 97.9254 94.5403 94.0231C94.834 93.3545 94.5337 92.5733 93.8671 92.2755L93.8704 92.2721Z" fill="#FFEABB"/>
        <path d="M77.4601 109.834C74.3021 111.473 70.9857 112.3 67.6033 112.294C56.915 112.274 47.5895 103.936 42.6298 91.6104L40.5112 93.3414C45.9693 106.233 56.057 114.918 67.5967 114.942C71.4048 114.948 75.1337 114.025 78.6712 112.188C79.3179 111.85 79.572 111.052 79.2388 110.404C78.9055 109.755 78.1069 109.497 77.4601 109.834Z" fill="#FFEABB"/>
        <path d="M94.7845 48.9824L92.666 50.7135C95.1343 56.7738 96.55 63.8106 96.5335 71.3107C96.5269 74.9118 96.187 78.4832 95.5303 81.9287C95.3917 82.647 95.8636 83.3421 96.5764 83.4778C96.6589 83.4943 96.7414 83.5009 96.8239 83.5009C97.4443 83.5009 98.0019 83.0607 98.1207 82.4252C98.8104 78.8175 99.1635 75.0806 99.1701 71.314C99.1866 63.1619 97.5796 55.526 94.7812 48.9824H94.7845Z" fill="#FFEABB"/>
        <path d="M115.33 71.3242C120.514 77.2621 118.791 88.2641 112.31 92.59L112.079 92.461C115.505 85.9604 116.669 78.6092 115.072 71.3904L115.33 71.3242Z" fill="#FFC36C"/>
        <path d="M6.63783 55.6982C-4.6874 35.4221 16.4286 6.2258 39.2738 11.3164L39.4321 11.9585C19.2797 17.4032 6.78962 34.866 7.29451 55.6651L6.63453 55.6982H6.63783Z" fill="#BA4A09"/>
        <path d="M67.7948 18.294C64.8974 18.2874 62.0793 18.7078 59.3569 19.4922C59.8618 24.9568 62.6502 30.567 68.6098 35.2008C65.7752 43.1047 69.0718 52.8522 75.1964 56.6222C78.8527 58.8729 81.9051 58.6577 83.2745 58.3863L84.1721 57.6549C85.2347 53.0409 86.3335 46.7323 89.1417 43.0087C89.7852 42.1581 91.8345 42.3931 93.1907 43.5946C94.5536 44.806 95.8702 46.0703 96.6061 47.4903L101.44 43.5416C94.5008 28.4222 82.0437 18.3271 67.7915 18.2973L67.7948 18.294Z" fill="#FFD8A0"/>
        <path d="M92.3426 31.818C90.9533 27.535 89.2473 22.653 86.2939 19.1611C84.5944 17.152 78.681 12.0217 75.9883 14.7126C73.3319 17.3671 78.384 23.348 80.3013 25.003C83.7925 28.0116 88.683 29.7626 92.9761 31.1858L92.7088 32.1854C86.505 34.9226 78.6084 34.3599 73.1141 30.3451C66.2965 25.3671 61.9143 15.0204 68.2698 7.87446C74.5627 0.797986 85.0168 4.14756 90.422 10.4462C95.3257 16.159 96.3849 24.6422 93.3424 31.5532L92.3458 31.818H92.3426Z" fill="#A44209"/>
        <path d="M92.6924 31.1127C97.6422 29.5339 103.232 27.5546 107.205 24.1058C109.453 22.1563 115.237 15.4406 112.182 12.3657C109.139 9.30408 102.384 15.0732 100.457 17.3106C97.0219 21.299 95.0089 26.8728 93.4118 31.8376L92.2733 31.5331C88.5576 23.0665 90.267 12.9151 96.6655 6.34507C102.853 -0.00985866 113.568 -2.93577 120.534 4.02155C127.275 10.7571 124.602 21.2758 118.623 27.4322C112.05 34.2008 101.668 36.1007 92.9894 32.2579L92.6891 31.1127H92.6924Z" fill="#BA4A09"/>
        <path d="M92.1017 34.6675C89.3166 32.9199 85.2611 37.1002 83.7002 39.2649C81.3474 42.5317 80.3178 46.7981 79.2057 50.6078L78.3445 50.4555C72.9756 45.6033 72.7248 37.0009 78.4171 32.291C81.2484 29.9476 92.9564 27.1045 92.6627 33.9989L92.0984 34.6708L92.1017 34.6675Z" fill="#BA4A09"/>
        <path d="M102.209 55.3935C107.776 44.8516 96.672 37.5236 91.5505 33.0056L92.1577 32.1384C99.863 28.865 109.086 32.5224 111.686 40.6547C113.412 46.0597 112.36 54.4535 102.955 56.1415L102.209 55.3902V55.3935Z" fill="#A44209"/>
        <path d="M92.8409 36.9812C95.7568 36.9812 98.1207 34.6102 98.1207 31.6854C98.1207 28.7606 95.7568 26.3896 92.8409 26.3896C89.9249 26.3896 87.561 28.7606 87.561 31.6854C87.561 34.6102 89.9249 36.9812 92.8409 36.9812Z" fill="#BA4A09"/>
    </g>
    <defs>
        <clipPath id="clip0_2247_3053">
            <rect width="124" height="133" fill="white" transform="translate(0.5)"/>
        </clipPath>
    </defs>
</svg>
