<svg width="216" height="137" viewBox="0 0 216 137" fill="none" xmlns="http://www.w3.org/2000/svg">
    <g clip-path="url(#clip0_2120_10873)">
        <path d="M215.28 120.712C215.28 125.498 167.201 129.388 107.882 129.388C48.5618 129.388 0.5 125.498 0.5 120.712C0.5 115.925 48.5787 112.035 107.898 112.035C167.218 112.035 215.297 115.925 215.297 120.712H215.28Z" fill="#242C89" fill-opacity="0.1"/>
        <path d="M190.479 105.507H147.936V121.998H190.479V105.507Z" fill="#242C89"/>
        <path d="M129.906 101.178H87.3634V121.965H129.906V101.178Z" fill="#242C89"/>
        <path d="M69.8756 108.89H27.3327V121.998H69.8756V108.89Z" fill="#242C89"/>
        <path d="M190.479 113.727H147.936V121.98H190.479V113.727Z" fill="url(#paint0_linear_2120_10873)"/>
        <path d="M129.906 111.562H87.3634V121.98H129.906V111.562Z" fill="url(#paint1_linear_2120_10873)"/>
        <path d="M69.8756 115.418H27.3327V121.98H69.8756V115.418Z" fill="url(#paint2_linear_2120_10873)"/>
        <path d="M110.489 25.3194L121.171 46.9349C121.476 47.5438 122.051 47.9667 122.728 48.0682L146.598 51.5354C148.308 51.7891 148.985 53.8695 147.75 55.0704L130.465 71.8994C129.974 72.373 129.754 73.0664 129.872 73.7261L133.952 97.4896C134.24 99.181 132.463 100.483 130.939 99.6715L109.591 88.4578C108.982 88.1364 108.271 88.1364 107.661 88.4578L86.2968 99.6715C84.7732 100.483 82.9957 99.181 83.2835 97.4896L87.3634 73.7261C87.4819 73.0495 87.2618 72.373 86.7709 71.8994L69.5031 55.0704C68.2673 53.8695 68.9445 51.7891 70.6543 51.5354L94.5244 48.0682C95.2016 47.9667 95.7941 47.5438 96.0819 46.9349L106.764 25.3194C107.526 23.7803 109.727 23.7803 110.489 25.3194Z" fill="#FFD8A0"/>
        <path d="M110.489 25.3194L121.171 46.9349C121.476 47.5438 122.051 47.9667 122.728 48.0682L146.598 51.5354C148.308 51.7891 148.985 53.8695 147.75 55.0704L130.465 71.8994C129.974 72.373 129.754 73.0664 129.872 73.7261L133.952 97.4896C134.24 99.181 132.463 100.483 130.939 99.6715L109.591 88.4578C108.982 88.1364 108.271 88.1364 107.661 88.4578L86.2968 99.6715C84.7732 100.483 82.9957 99.181 83.2835 97.4896L87.3634 73.7261C87.4819 73.0495 87.2618 72.373 86.7709 71.8994L69.5031 55.0704C68.2673 53.8695 68.9445 51.7891 70.6543 51.5354L94.5244 48.0682C95.2016 47.9667 95.7941 47.5438 96.0819 46.9349L106.764 25.3194C107.526 23.7803 109.727 23.7803 110.489 25.3194Z" fill="#FFD8A0"/>
        <path d="M86.3138 99.6879L87.3803 99.1298L123.93 48.2537L122.728 48.0846C122.051 47.9831 121.476 47.5602 121.171 46.9514L117.667 39.8477L86.0768 81.3198L83.3004 97.5061C83.0126 99.1974 84.7901 100.5 86.3138 99.6879Z" fill="#FFC36C"/>
        <path d="M109.591 88.4583L110.455 88.915L136.238 50.0307L131.345 49.3203L101.347 91.7734L107.645 88.4583C108.254 88.137 108.965 88.137 109.574 88.4583H109.591Z" fill="#FFC36C"/>
        <path d="M86.3646 56.6948C86.7201 56.3058 87.3295 54.8174 87.3295 54.8174C87.3295 54.8174 88.0067 56.272 88.3791 56.644C88.7685 56.9992 90.2583 57.6081 90.2583 57.6081C90.2583 57.6081 88.8024 58.2847 88.4299 58.6568C88.0744 59.0458 87.465 60.5342 87.465 60.5342C87.465 60.5342 86.7878 59.0796 86.3984 58.7075C86.0091 58.3354 84.5193 57.7434 84.5193 57.7434C84.5193 57.7434 85.9752 57.0669 86.3476 56.6779L86.3646 56.6948Z" fill="#F7F7FC"/>
        <path d="M37.6594 53.0912L44.1941 66.3176C44.3803 66.6897 44.7358 66.9435 45.1421 67.0111L59.7519 69.1253C60.8015 69.2775 61.2078 70.546 60.446 71.2902L49.8823 81.5737C49.5945 81.8612 49.4421 82.2841 49.5267 82.69L52.0153 97.2188C52.2015 98.2505 51.1011 99.0454 50.17 98.5549L37.1008 91.688C36.7283 91.502 36.2882 91.502 35.9157 91.688L22.8464 98.5549C21.9153 99.0454 20.8319 98.2505 21.0011 97.2188L23.4897 82.69C23.5574 82.2841 23.422 81.8612 23.1173 81.5737L12.5535 71.2902C11.7917 70.563 12.2149 69.2775 13.2476 69.1253L27.8574 67.0111C28.2637 66.9435 28.6362 66.6897 28.8224 66.3176L35.3571 53.0912C35.8311 52.1441 37.1685 52.1441 37.6425 53.0912H37.6594Z" fill="#FFD8A0"/>
        <path d="M37.6594 53.0912L44.1941 66.3176C44.3803 66.6897 44.7358 66.9435 45.1421 67.0111L59.7519 69.1253C60.8015 69.2775 61.2078 70.546 60.446 71.2902L49.8823 81.5737C49.5945 81.8612 49.4421 82.2841 49.5267 82.69L52.0153 97.2188C52.2015 98.2505 51.1011 99.0454 50.17 98.5549L37.1008 91.688C36.7283 91.502 36.2882 91.502 35.9157 91.688L22.8464 98.5549C21.9153 99.0454 20.8319 98.2505 21.0011 97.2188L23.4897 82.69C23.5574 82.2841 23.422 81.8612 23.1173 81.5737L12.5535 71.2902C11.7917 70.563 12.2149 69.2775 13.2476 69.1253L27.8574 67.0111C28.2637 66.9435 28.6362 66.6897 28.8224 66.3176L35.3571 53.0912C35.8311 52.1441 37.1685 52.1441 37.6425 53.0912H37.6594Z" fill="#FFD8A0"/>
        <path d="M22.8634 98.5902L23.5067 98.252L45.8701 67.131L45.1421 67.0295C44.7358 66.9618 44.3803 66.7081 44.1941 66.336L42.0441 61.9893L22.6095 87.9854L21.0181 97.2541C20.8319 98.2858 21.9323 99.0807 22.8634 98.5902Z" fill="#FFC36C"/>
        <path d="M37.1008 91.7231L37.6256 91.9937L53.4035 68.2132L50.4071 67.7734L32.0559 93.7527L35.9158 91.7231C36.2882 91.537 36.7284 91.537 37.1008 91.7231Z" fill="#FFC36C"/>
        <path d="M25.4874 72.3397C25.8429 71.9676 26.4016 70.5469 26.4016 70.5469C26.4016 70.5469 27.0449 71.9338 27.4173 72.289C27.7898 72.6442 29.2118 73.2023 29.2118 73.2023C29.2118 73.2023 27.8067 73.845 27.4681 74.2171C27.1295 74.5892 26.554 76.01 26.554 76.01C26.554 76.01 25.8937 74.6061 25.5382 74.2679C25.1658 73.9127 23.7437 73.3545 23.7437 73.3545C23.7437 73.3545 25.1488 72.7118 25.4874 72.3397Z" fill="#F7F7FC"/>
        <path d="M185.298 50.267L191.833 63.4934C192.019 63.8655 192.375 64.1361 192.781 64.1869L207.391 66.3011C208.441 66.4533 208.847 67.7218 208.102 68.466L197.538 78.7664C197.233 79.0539 197.098 79.4768 197.183 79.8827L199.671 94.4284C199.857 95.4601 198.757 96.255 197.826 95.7645L184.757 88.8976C184.384 88.6947 183.944 88.6947 183.572 88.8976L170.519 95.7645C169.588 96.255 168.505 95.4601 168.674 94.4284L171.163 79.8827C171.23 79.4768 171.095 79.0539 170.79 78.7664L160.226 68.466C159.481 67.7387 159.888 66.4533 160.937 66.3011L175.547 64.1869C175.97 64.1192 176.326 63.8655 176.495 63.4934L183.03 50.267C183.487 49.3199 184.841 49.3199 185.298 50.267Z" fill="#FFD8A0"/>
        <path d="M185.298 50.267L191.833 63.4934C192.019 63.8655 192.375 64.1361 192.781 64.1869L207.391 66.3011C208.441 66.4533 208.847 67.7218 208.102 68.466L197.538 78.7664C197.233 79.0539 197.098 79.4768 197.183 79.8827L199.671 94.4284C199.857 95.4601 198.757 96.255 197.826 95.7645L184.757 88.8976C184.384 88.6947 183.944 88.6947 183.572 88.8976L170.519 95.7645C169.588 96.255 168.505 95.4601 168.674 94.4284L171.163 79.8827C171.23 79.4768 171.095 79.0539 170.79 78.7664L160.226 68.466C159.481 67.7387 159.888 66.4533 160.937 66.3011L175.547 64.1869C175.97 64.1192 176.326 63.8655 176.495 63.4934L183.03 50.267C183.487 49.3199 184.841 49.3199 185.298 50.267Z" fill="#FFD8A0"/>
        <path d="M170.502 95.7475L171.146 95.4092L193.509 64.2882L192.764 64.1867C192.358 64.1191 192.002 63.8654 191.816 63.4933L189.666 59.1465L170.282 84.9228L168.657 94.4282C168.488 95.4599 169.571 96.2549 170.502 95.7644V95.7475Z" fill="#FFC36C"/>
        <path d="M184.74 88.8982L185.281 89.1858L201.059 65.4053L198.063 64.9824L179.712 90.9448L183.555 88.9151C183.927 88.7122 184.367 88.7122 184.74 88.9151V88.8982Z" fill="#FFC36C"/>
        <path d="M173.143 69.4979C173.482 69.1258 174.057 67.7051 174.057 67.7051C174.057 67.7051 174.701 69.1089 175.073 69.4472C175.446 69.7855 176.868 70.3605 176.868 70.3605C176.868 70.3605 175.463 71.0201 175.124 71.3753C174.785 71.7474 174.21 73.1682 174.21 73.1682C174.21 73.1682 173.567 71.7643 173.194 71.4261C172.822 71.0709 171.4 70.4958 171.4 70.4958C171.4 70.4958 172.805 69.8531 173.143 69.481V69.4979Z" fill="#F7F7FC"/>
        <path d="M78.5095 70.4278L76.8843 68.0938L75.1913 70.1403L77.3921 72.9987L78.5095 70.4278Z" fill="#F2AB8F"/>
        <path d="M75.6654 70.9871C75.6654 70.9871 75.7331 69.1267 77.663 69.1436C77.663 69.1436 76.4949 64.4754 73.7524 65.9638C71.0098 67.4522 67.1669 71.5284 67.4547 73.0168C67.8779 75.1648 72.4996 72.9491 75.6654 70.9871Z" fill="black"/>
        <path d="M111.047 95.4426L110.421 98.2165L113.062 98.0812L113.688 94.5293L111.047 95.4426Z" fill="#F2AB8F"/>
        <path d="M113.367 97.1691C113.367 97.1691 111.944 98.37 110.658 96.9492C110.658 96.9492 108 100.958 110.963 101.973C113.908 102.97 119.512 103.072 120.426 101.854C121.73 100.095 116.972 98.1839 113.383 97.186L113.367 97.1691Z" fill="black"/>
        <path d="M101.668 42.2324C101.668 42.2324 92.0866 56.609 107.238 73.2858L110.268 95.8485L113.587 96.0007C113.587 96.0007 121.611 78.4951 119.867 66.9601L114.958 46.8329L101.652 42.2324H101.668Z" fill="#A44209"/>
        <path d="M109.845 48.0166C109.845 48.0166 102.532 89.624 90.5122 88.2709C78.4925 86.9178 75.5299 73.1333 75.5299 73.1333L79.0681 69.463L90.4614 76.4483C90.4614 76.4483 90.4953 56.541 92.7638 51.1118L109.845 48.0166Z" fill="#BA4A09"/>
        <path d="M124.743 7.62894C124.743 7.62894 123.659 2.43647 124.828 3.60351C126.013 4.77055 126.961 5.80228 126.165 8.30549L124.743 7.62894Z" fill="#FFD8A0"/>
        <path d="M107.34 25.5556C106.595 26.063 105.799 27.9573 107.763 28.3802C110.895 29.0398 121.577 25.5894 123.202 23.915C124.828 22.2236 126.351 8.05003 126.351 8.05003C126.351 8.05003 125.623 6.89991 124.455 7.57645L118.987 19.9741C118.987 19.9741 110.319 23.526 107.323 25.5894L107.34 25.5556Z" fill="#242C89"/>
        <path d="M99.7216 21.4128C96.9283 23.7469 91.6295 34.7069 91.1386 55.1723C91.0539 59.0456 116.498 50.149 115.178 46.4957C111.284 35.8232 113.604 28.0937 108.356 21.3959C108.356 21.3959 105.274 16.7785 99.7386 21.3959L99.7216 21.4128Z" fill="#242C89"/>
        <path d="M103.192 13.8857C103.192 13.8857 104.072 17.4883 102.515 19.5349C101.516 20.8372 107.171 26.3172 107.255 24.406C107.374 21.9535 106.392 20.3129 108.051 17.7251L103.192 13.8857Z" fill="#FFD8A0"/>
        <path d="M109.811 8.93074C111.454 11.2817 111.894 20.1952 109.354 21.6159C108.254 22.2248 104.58 20.5165 102.938 16.2881C102.261 14.5461 101.618 11.434 103.768 8.88C104.733 7.71296 107.915 6.19074 109.828 8.93074H109.811Z" fill="#FFD8A0"/>
        <path d="M105.664 6.76524C105.664 6.76524 102.278 2.63833 96.3697 5.47981C90.4614 8.32129 90.5799 14.8161 90.1059 19.2136C89.6488 23.6112 90.2075 28.4654 88.2945 32.4231C86.3815 36.3809 100.5 25.3533 100.653 15.9493C100.788 7.57709 104.242 6.37623 105.664 6.76524Z" fill="black"/>
        <path d="M105.19 6.41075C105.681 7.61161 105.105 8.98161 103.903 9.47211C102.701 9.9626 101.33 9.38754 100.839 8.18668C100.348 6.98581 100.924 5.61581 102.126 5.12532C103.328 4.63482 104.699 5.20988 105.19 6.41075Z" fill="#BA4A09"/>
        <path d="M111.132 10.5041C111.098 11.6711 110.996 12.3476 108.423 11.5696C105.274 10.6055 105.342 12.9565 105.511 13.7853C106.002 16.2209 103.141 15.02 103.751 17.9291C104.36 20.8383 100.365 17.2357 100.145 16.779C99.9248 16.3223 98.0457 11.5865 101.178 8.52517C105.511 4.27987 111.25 6.86764 111.132 10.5041Z" fill="black"/>
        <path d="M91.5449 3.89021C91.5449 3.89021 94.3212 -0.64263 92.8146 0.06774C91.3079 0.761197 90.072 1.43774 89.9705 4.05934L91.5279 3.89021H91.5449Z" fill="#FFD8A0"/>
        <path d="M100.974 24.3723C101.499 25.0996 100.67 28.736 98.689 28.4823C95.5232 28.0594 88.4976 21.8691 87.5327 19.7379C86.5677 17.6068 89.9027 3.72078 89.9027 3.72078C89.9027 3.72078 90.9693 2.8751 91.8496 3.90683L92.8315 17.4208C92.8315 17.4208 98.8582 21.4462 100.991 24.3723H100.974Z" fill="#242C89"/>
    </g>
    <defs>
        <linearGradient id="paint0_linear_2120_10873" x1="151.077" y1="112.764" x2="178.066" y2="132.079" gradientUnits="userSpaceOnUse">
            <stop stop-color="#2C3496"/>
            <stop offset="1" stop-color="#323DBB"/>
        </linearGradient>
        <linearGradient id="paint1_linear_2120_10873" x1="90.5042" y1="110.346" x2="121.389" y2="127.857" gradientUnits="userSpaceOnUse">
            <stop stop-color="#2C3496"/>
            <stop offset="1" stop-color="#323DBB"/>
        </linearGradient>
        <linearGradient id="paint2_linear_2120_10873" x1="30.4735" y1="114.652" x2="53.0192" y2="134.946" gradientUnits="userSpaceOnUse">
            <stop stop-color="#2C3496"/>
            <stop offset="1" stop-color="#323DBB"/>
        </linearGradient>
        <clipPath id="clip0_2120_10873">
            <rect width="215" height="137" fill="white" transform="translate(0.5)"/>
        </clipPath>
    </defs>
</svg>
