<svg width="93" height="72" viewBox="0 0 93 72" fill="none" xmlns="http://www.w3.org/2000/svg">
    <path d="M26.6308 23.3544C33.9852 26.2071 27.151 24.7675 38.556 32.2841C49.6873 39.6161 52.1459 38.0636 53.1259 46.7663C54.1249 55.6997 34.9706 68.7552 21.3898 59.6036C5.14603 48.6575 5.87942 15.3099 26.6308 23.3544Z" fill="#E9EAF3"/>
    <path d="M43.5965 26.501C47.803 19.8279 45.083 26.2606 54.642 16.5036C63.9675 6.97998 62.9138 4.2698 71.6433 4.97222C80.6028 5.70011 89.7543 26.9976 78.1743 38.5776C64.3238 52.4282 31.7319 45.3309 43.5965 26.501Z" fill="#E9EAF3"/>
    <path d="M78.0732 63.4201C78.0732 64.7374 64.533 65.808 47.8269 65.808C31.1209 65.808 17.5853 64.7374 17.5853 63.4201C17.5853 62.1028 31.1256 61.0322 47.8317 61.0322C64.5377 61.0322 78.078 62.1028 78.078 63.4201H78.0732Z" fill="#242C89" fill-opacity="0.1"/>
    <g clip-path="url(#clip0_2124_11497)">
        <path d="M23.4838 12.0801H55.6143C56.6319 12.0801 57.458 12.9106 57.458 13.9336V60.7698C57.458 61.7928 56.6319 62.6233 55.6143 62.6233H23.4838C22.4662 62.6233 21.64 61.7928 21.64 60.7698V13.9336C21.64 12.9106 22.4662 12.0801 23.4838 12.0801Z" fill="#FFD8A0"/>
        <path d="M54.5709 16.2373H24.8653V23.9476H54.5709V16.2373Z" fill="white"/>
        <g style="mix-blend-mode:multiply" opacity="0.5">
            <path d="M25.6533 17.3471H54.5705V16.2373H24.8653V23.9476H25.6533V17.3471Z" fill="white"/>
        </g>
        <path d="M25.0071 26.1475H33.2471C33.3252 26.1475 33.3889 26.2115 33.3889 26.29V28.7827C33.3889 28.8613 33.3255 28.9253 33.2471 28.9253H25.0071C24.929 28.9253 24.8653 28.8613 24.8653 28.7827V26.29C24.8653 26.2115 24.929 26.1475 25.0071 26.1475Z" fill="#FFC36C"/>
        <path d="M35.5979 26.1475H43.8379C43.916 26.1475 43.9797 26.2111 43.9797 26.29V28.7827C43.9797 28.8613 43.9164 28.9253 43.8379 28.9253H35.5979C35.5198 28.9253 35.4561 28.8616 35.4561 28.7827V26.29C35.4561 26.2115 35.5198 26.1475 35.5979 26.1475Z" fill="#FFC36C"/>
        <path d="M46.1887 26.1475H54.4286C54.5068 26.1475 54.5705 26.2111 54.5705 26.29V28.7827C54.5705 28.8613 54.5071 28.9253 54.4286 28.9253H46.1887C46.1106 28.9253 46.0469 28.8616 46.0469 28.7827V26.29C46.0469 26.2115 46.1106 26.1475 46.1887 26.1475Z" fill="#FFC36C"/>
        <path d="M25.183 31.124H31.1437C31.3189 31.124 31.4614 31.2673 31.4614 31.4434V37.0317C31.4614 37.2082 31.3189 37.3511 31.1437 37.3511H25.183C25.0078 37.3511 24.8653 37.2078 24.8653 37.0317V31.4434C24.8653 31.2673 25.0078 31.124 25.183 31.124Z" fill="#BA4A09"/>
        <path d="M32.8859 31.124H38.8466C39.0218 31.124 39.1643 31.2673 39.1643 31.4434V37.0317C39.1643 37.2082 39.0218 37.3511 38.8466 37.3511H32.8859C32.7104 37.3511 32.5682 37.2078 32.5682 37.0317V31.4434C32.5682 31.2673 32.7107 31.124 32.8859 31.124Z" fill="#242C89"/>
        <path d="M40.5892 31.124H46.5498C46.7251 31.124 46.8676 31.2673 46.8676 31.4434V37.0317C46.8676 37.2082 46.7251 37.3511 46.5498 37.3511H40.5892C40.4139 37.3511 40.2714 37.2078 40.2714 37.0317V31.4434C40.2714 31.2673 40.4139 31.124 40.5892 31.124Z" fill="#242C89"/>
        <path d="M25.183 38.8018H31.1437C31.3189 38.8018 31.4614 38.945 31.4614 39.1212V44.7094C31.4614 44.8855 31.3189 45.0288 31.1437 45.0288H25.183C25.0078 45.0288 24.8653 44.8855 24.8653 44.7094V39.1212C24.8653 38.9447 25.0078 38.8018 25.183 38.8018Z" fill="#BA4A09"/>
        <path d="M32.8859 38.8018H38.8466C39.0221 38.8018 39.1643 38.945 39.1643 39.1212V44.7094C39.1643 44.8855 39.0218 45.0288 38.8466 45.0288H32.8859C32.7107 45.0288 32.5682 44.8855 32.5682 44.7094V39.1212C32.5682 38.9447 32.7107 38.8018 32.8859 38.8018Z" fill="#242C89"/>
        <path d="M40.5892 38.8018H46.5498C46.7254 38.8018 46.8676 38.945 46.8676 39.1212V44.7094C46.8676 44.8855 46.7251 45.0288 46.5498 45.0288H40.5892C40.4139 45.0288 40.2714 44.8855 40.2714 44.7094V39.1212C40.2714 38.9447 40.4139 38.8018 40.5892 38.8018Z" fill="#242C89"/>
        <path d="M53.2269 31.124H49.3183C48.5761 31.124 47.9744 31.731 47.9744 32.4796V43.673C47.9744 44.4215 48.5761 45.0285 49.3183 45.0285H53.2269C53.9691 45.0285 54.5709 44.4215 54.5709 43.673V32.4796C54.5709 31.731 53.9691 31.124 53.2269 31.124Z" fill="#242C89"/>
        <path d="M25.183 46.4785H31.1437C31.3189 46.4785 31.4614 46.6218 31.4614 46.7979V52.3862C31.4614 52.5623 31.3189 52.7056 31.1437 52.7056H25.183C25.0078 52.7056 24.8653 52.5623 24.8653 52.3862V46.7979C24.8653 46.6214 25.0078 46.4785 25.183 46.4785Z" fill="#BA4A09"/>
        <path d="M32.8859 46.4785H38.8466C39.0218 46.4785 39.1643 46.6218 39.1643 46.7979V52.3862C39.1643 52.5623 39.0218 52.7056 38.8466 52.7056H32.8859C32.7107 52.7056 32.5682 52.5623 32.5682 52.3862V46.7979C32.5682 46.6214 32.7107 46.4785 32.8859 46.4785Z" fill="#242C89"/>
        <path d="M40.5892 46.4785H46.5498C46.7251 46.4785 46.8676 46.6218 46.8676 46.7979V52.3862C46.8676 52.5623 46.7251 52.7056 46.5498 52.7056H40.5892C40.4139 52.7056 40.2714 52.5623 40.2714 52.3862V46.7979C40.2714 46.6214 40.4139 46.4785 40.5892 46.4785Z" fill="#242C89"/>
        <path d="M48.2921 46.4785H54.2528C54.428 46.4785 54.5705 46.6218 54.5705 46.7979V52.3862C54.5705 52.5623 54.428 52.7056 54.2528 52.7056H48.2921C48.1169 52.7056 47.9744 52.5623 47.9744 52.3862V46.7979C47.9744 46.6214 48.1169 46.4785 48.2921 46.4785Z" fill="#242C89"/>
        <path d="M25.183 54.1553H31.1437C31.3189 54.1553 31.4614 54.2985 31.4614 54.4747V60.0629C31.4614 60.2391 31.3189 60.3823 31.1437 60.3823H25.183C25.0078 60.3823 24.8653 60.2391 24.8653 60.0629V54.4747C24.8653 54.2985 25.0078 54.1553 25.183 54.1553Z" fill="#BA4A09"/>
        <path d="M38.8466 54.1553H32.8859C32.7104 54.1553 32.5682 54.2983 32.5682 54.4747V60.0629C32.5682 60.2393 32.7104 60.3823 32.8859 60.3823H38.8466C39.0221 60.3823 39.1643 60.2393 39.1643 60.0629V54.4747C39.1643 54.2983 39.0221 54.1553 38.8466 54.1553Z" fill="#242C89"/>
        <path d="M46.5498 54.1553H40.5892C40.4137 54.1553 40.2714 54.2983 40.2714 54.4747V60.0629C40.2714 60.2393 40.4137 60.3823 40.5892 60.3823H46.5498C46.7253 60.3823 46.8676 60.2393 46.8676 60.0629V54.4747C46.8676 54.2983 46.7253 54.1553 46.5498 54.1553Z" fill="#242C89"/>
        <path d="M54.2528 54.1553H48.2921C48.1166 54.1553 47.9744 54.2983 47.9744 54.4747V60.0629C47.9744 60.2393 48.1166 60.3823 48.2921 60.3823H54.2528C54.4283 60.3823 54.5705 60.2393 54.5705 60.0629V54.4747C54.5705 54.2983 54.4283 54.1553 54.2528 54.1553Z" fill="#BA4A09"/>
        <path d="M29.2927 47.9561V48.271L27.7697 51.4842H27.2802L28.7976 48.3634V48.3526H27.0864V47.9564H29.2927V47.9561Z" fill="white"/>
        <path d="M34.7115 50.5885C34.7115 50.1435 34.9752 49.8286 35.4055 49.6441L35.4 49.6278C35.0127 49.4434 34.8457 49.1392 34.8457 48.8354C34.8457 48.2761 35.3139 47.8965 35.9274 47.8965C36.6055 47.8965 36.9443 48.3253 36.9443 48.7648C36.9443 49.0634 36.799 49.3835 36.3687 49.5898V49.606C36.8045 49.7798 37.0737 50.0891 37.0737 50.5179C37.0737 51.1311 36.5518 51.5436 35.8847 51.5436C35.1528 51.5436 34.7115 51.1041 34.7115 50.5885ZM36.5949 50.5667C36.5949 50.1379 36.2988 49.9317 35.8255 49.796C35.4165 49.9154 35.1958 50.1867 35.1958 50.5235C35.1797 50.8816 35.4489 51.1965 35.8954 51.1965C36.3418 51.1965 36.5949 50.9304 36.5949 50.5667ZM35.2926 48.8028C35.2926 49.1558 35.5563 49.3455 35.9597 49.4541C36.261 49.351 36.4926 49.134 36.4926 48.8136C36.4926 48.5312 36.3257 48.238 35.9009 48.238C35.5081 48.238 35.2929 48.4986 35.2929 48.8025L35.2926 48.8028Z" fill="white"/>
        <path d="M37.0792 57.2642C37.0792 58.4637 36.6379 59.126 35.8633 59.126C35.18 59.126 34.7173 58.4803 34.7063 57.313C34.7063 56.1298 35.212 55.4785 35.9222 55.4785C36.6324 55.4785 37.0792 56.1405 37.0792 57.2642ZM35.1796 57.3185C35.1796 58.2359 35.4595 58.7568 35.8898 58.7568C36.3742 58.7568 36.6055 58.1868 36.6055 57.286C36.6055 56.3852 36.3849 55.8478 35.8953 55.8478C35.4809 55.8478 35.1796 56.3579 35.1796 57.3185Z" fill="white"/>
        <path d="M42.8426 51.1474C42.9449 51.1581 43.0633 51.1474 43.2248 51.1311C43.4991 51.0931 43.7577 50.9792 43.9566 50.7892C44.188 50.5774 44.3549 50.2681 44.4193 49.8504H44.4031C44.2093 50.0891 43.9298 50.2303 43.58 50.2303C42.9504 50.2303 42.5469 49.7528 42.5469 49.1503C42.5469 48.4827 43.0258 47.8965 43.7415 47.8965C44.4572 47.8965 44.8985 48.4827 44.8985 49.3835C44.8985 50.1597 44.6403 50.7024 44.2957 51.0391C44.0265 51.3049 43.6554 51.4679 43.2788 51.5111C43.1067 51.5385 42.9559 51.5436 42.843 51.5385V51.1478L42.8426 51.1474ZM43.0148 49.1174C43.0148 49.5569 43.2785 49.8663 43.6874 49.8663C44.0048 49.8663 44.2523 49.7088 44.3763 49.497C44.4031 49.4538 44.4193 49.3994 44.4193 49.3233C44.4193 48.7208 44.1986 48.2595 43.7036 48.2595C43.3002 48.2595 43.0148 48.6177 43.0148 49.1171V49.1174Z" fill="white"/>
        <path d="M28.4854 43.657V42.6963H26.8602V42.3814L28.4207 40.1289H28.9319V42.3216H29.4214V42.696H28.9319V43.6567H28.4854V43.657ZM28.4854 42.3219V41.1443C28.4854 40.9598 28.4909 40.775 28.5016 40.5906H28.4854C28.3777 40.7968 28.2916 40.9487 28.1949 41.1117L27.3394 42.3112V42.3219H28.4854Z" fill="white"/>
        <path d="M36.8424 40.5303H35.5077L35.3731 41.4367C35.4537 41.426 35.5291 41.4152 35.6582 41.4152C35.927 41.4152 36.1962 41.4747 36.4114 41.6052C36.6857 41.7627 36.9119 42.0665 36.9119 42.5116C36.9119 43.2009 36.3683 43.7165 35.6096 43.7165C35.2275 43.7165 34.9046 43.6079 34.738 43.4996L34.8564 43.1359C35.0017 43.2227 35.2867 43.3314 35.6044 43.3314C36.0513 43.3314 36.4331 43.0383 36.4331 42.5659C36.4275 42.1101 36.1263 41.7845 35.4268 41.7845C35.2278 41.7845 35.0716 41.8063 34.9425 41.8225L35.1683 40.1289H36.8417V40.5307L36.8424 40.5303Z" fill="white"/>
        <path d="M44.5645 40.4649C44.4678 40.4594 44.3439 40.4649 44.2093 40.4867C43.4667 40.6117 43.0739 41.1598 42.993 41.7405H43.0092C43.1762 41.518 43.4667 41.3335 43.854 41.3335C44.473 41.3335 44.9088 41.7841 44.9088 42.4735C44.9088 43.1192 44.473 43.7165 43.7466 43.7165C43.0202 43.7165 42.509 43.1303 42.509 42.2129C42.509 41.518 42.7565 40.9698 43.1011 40.6227C43.3917 40.3351 43.7793 40.1559 44.2203 40.1016C44.3601 40.0798 44.4785 40.0742 44.5645 40.0742V40.4649ZM44.4299 42.5001C44.4299 41.9952 44.1446 41.6914 43.7087 41.6914C43.4237 41.6914 43.16 41.8706 43.0309 42.1257C42.9986 42.18 42.9772 42.2506 42.9772 42.3375C42.9879 42.9182 43.2516 43.3469 43.7466 43.3469C44.1556 43.3469 44.4299 43.005 44.4299 42.5001Z" fill="white"/>
        <path d="M28.0496 33.073H28.0389L27.431 33.4041L27.3394 33.0404L28.1033 32.6279H28.5068V36.156H28.0493V33.073H28.0496Z" fill="white"/>
        <path d="M34.7545 36.1554V35.8622L35.1256 35.4985C36.0189 34.641 36.4224 34.1849 36.4279 33.653C36.4279 33.2948 36.2558 32.9636 35.7339 32.9636C35.4165 32.9636 35.1528 33.1266 34.9914 33.2619L34.8406 32.9256C35.0826 32.7193 35.4272 32.5674 35.8306 32.5674C36.5839 32.5674 36.9016 33.0886 36.9016 33.5931C36.9016 34.2444 36.4334 34.7708 35.6964 35.4875L35.4165 35.748V35.7588H36.9877V36.155H34.7545V36.1554Z" fill="white"/>
        <path d="M42.6812 35.6069C42.8158 35.6937 43.1277 35.8294 43.4561 35.8294C44.0644 35.8294 44.2527 35.4387 44.2472 35.1456C44.2417 34.6517 43.8007 34.4399 43.3432 34.4399H43.0795V34.0818H43.3432C43.6874 34.0818 44.1236 33.9028 44.1236 33.4848C44.1236 33.2028 43.946 32.9529 43.5101 32.9529C43.2303 32.9529 42.9614 33.0778 42.8106 33.1861L42.6867 32.8387C42.8695 32.703 43.2248 32.5674 43.6014 32.5674C44.2902 32.5674 44.6021 32.9799 44.6021 33.4087C44.6021 33.7724 44.3869 34.0818 43.9566 34.2392V34.2499C44.3869 34.3368 44.7367 34.6624 44.7367 35.1563C44.7367 35.7207 44.3009 36.2149 43.4613 36.2149C43.0685 36.2149 42.7242 36.09 42.5518 35.9761L42.6809 35.6069H42.6812Z" fill="white"/>
        <path d="M28.1632 59.0271C28.3961 59.0271 28.5849 58.8365 28.5849 58.6014C28.5849 58.3664 28.3961 58.1758 28.1632 58.1758C27.9303 58.1758 27.7415 58.3664 27.7415 58.6014C27.7415 58.8365 27.9303 59.0271 28.1632 59.0271Z" fill="white"/>
        <path d="M53.7784 38.3009H51.558V36.0615H50.9872V38.3009H48.7668V38.8767H50.9872V41.1165H51.558V38.8767H53.7784V38.3009Z" fill="white"/>
        <path d="M45.0472 58.5944L43.8716 57.4085L45.0472 56.2228L44.7449 55.918L43.5693 57.1036L42.394 55.918L42.0918 56.2228L43.2671 57.4085L42.0918 58.5944L42.394 58.8993L43.5693 57.7133L44.7449 58.8993L45.0472 58.5944Z" fill="white"/>
        <path d="M52.9945 49.4697H49.2763V50.0442H52.9945V49.4697Z" fill="white"/>
        <path d="M53.1316 56.1074H49.4133V56.6819H53.1316V56.1074Z" fill="white"/>
        <path d="M53.1316 57.5537H49.4133V58.1282H53.1316V57.5537Z" fill="white"/>
    </g>
    <g clip-path="url(#clip1_2124_11497)">
        <path d="M71.2682 58.3428C71.2682 58.3428 71.5293 60.1611 71.978 60.7478C72.1288 60.945 72.4039 61.1937 72.5845 61.5498C72.8657 62.104 72.7102 62.9288 72.5031 63.383C72.3965 63.6164 72.5105 63.6155 72.268 63.6908C71.5498 63.9135 70.786 63.5388 70.4802 62.8479C70.3094 62.462 70.1595 61.9473 70.1293 61.2988C70.0525 59.6478 69.5414 58.8086 69.5414 58.8086L71.2678 58.3437L71.2682 58.3428Z" fill="#BD6B4F"/>
        <path d="M63.4142 59.1748C63.4142 59.1748 63.2531 61.2251 63.3839 61.8914C63.4537 62.2479 63.8438 62.9825 63.665 63.3182C63.4863 63.6539 63.2815 63.738 63.2815 63.738L58.6456 63.8129C58.3928 63.8171 58.5599 63.6539 58.7633 63.5032C59.0966 63.2568 59.3656 63.0941 60.4301 62.5771C60.4995 62.5436 60.7522 62.3819 60.8434 62.3261C61.0748 62.1843 61.3066 61.9611 61.5067 61.7375C61.8395 61.3651 61.8688 59.5598 61.8688 59.5598L63.4142 59.1748Z" fill="#BD6B4F"/>
        <path d="M59.7906 31.9225C59.7906 31.9225 59.2069 35.2513 59.59 37.4337C59.9735 39.616 61.813 59.8444 61.813 59.8444L63.8573 59.9602C63.8573 59.9602 64.286 51.5102 64.2092 50.3353C64.1324 49.1604 63.5259 47.1938 63.5259 47.1938L63.7293 40.3715L61.1493 31.4092L59.7901 31.9229L59.7906 31.9225Z" fill="#242C89"/>
        <path d="M65.7996 31.2223C65.7996 31.2223 67.4096 33.6566 67.7927 35.6707C68.1758 37.6852 67.5116 43.8761 68.2489 46.516C68.6482 47.9451 70.1609 50.1517 70.3909 51.9984C70.6208 53.845 71.5229 58.6821 71.5229 58.6821L69.479 59.0889L64.7295 47.0088L61.004 36.0901L60.0499 30.4668L65.7992 31.2223H65.7996Z" fill="#242C89"/>
        <path d="M70.341 62.4845C71.4549 62.6886 72.1959 62.034 72.5813 61.5439C72.8643 62.0991 73.0025 62.9271 72.794 63.3832C72.6106 63.7849 72.0749 63.7733 71.6527 63.7891C71.2063 63.8058 70.8614 63.5566 70.6399 63.1665C70.5365 62.9843 70.4299 62.7574 70.3406 62.4845H70.341Z" fill="black"/>
        <path d="M60.8444 62.3258C62.0704 62.642 62.9766 62.4272 63.484 62.2217C63.6148 62.5941 63.7879 63.0609 63.6962 63.3301C63.5836 63.6597 63.4235 63.7341 63.282 63.7378C62.1621 63.7676 59.1799 63.8075 58.3258 63.8187C58.2067 63.8201 58.1406 63.6801 58.2174 63.5886C58.4291 63.3347 60.7536 62.3816 60.8448 62.3258H60.8444Z" fill="black"/>
        <path d="M59.3819 14.073C59.3223 12.6429 59.5332 11.2305 60.1741 9.89896C60.7252 8.75339 62.089 8.10296 63.3327 8.10157C67.2821 8.09645 67.7843 13.3087 70.2982 15.319C71.0662 15.9332 71.925 16.4335 72.652 17.096C75.3358 19.5424 74.127 24.0708 71.6625 26.2155C69.9524 27.7037 67.2644 28.5494 65.1563 27.3857C64.056 26.7785 63.2205 25.7687 62.6256 24.6626C61.7813 23.0926 61.2367 21.2817 60.6358 19.6084C59.9963 17.8278 59.4606 15.9737 59.3819 14.0726V14.073Z" fill="black"/>
        <path d="M61.2945 18.5723C61.2945 18.5723 61.8986 19.4249 61.6473 20.6998C61.3959 21.9746 57.5722 25.9143 57.0933 26.1677C56.5715 26.4434 56.2517 26.3356 56.0181 26.2026C54.0031 25.057 51.1564 18.9558 50.8259 18.5211L50.5359 18.1399L50.8166 17.1143L56.3863 23.2303C56.3863 23.2303 60.9375 18.1487 61.2954 18.5732L61.2945 18.5723Z" fill="#BD6B4F"/>
        <path d="M61.9661 17.5205C61.9661 17.5205 61.5337 17.6944 61.4024 17.7762C60.5153 18.3313 57.6071 21.4942 57.6071 21.4942C57.6071 21.4942 59.1375 23.1368 59.8148 23.8393L63.6846 20.9312L61.9656 17.5205H61.9661Z" fill="#E2E8F0"/>
        <path d="M64.71 16.9753C64.71 16.9753 66.9828 16.8311 67.882 17.8079C68.7813 18.7847 65.8876 26.5132 65.7237 27.7568C65.5604 29 66.5574 32.3061 66.5574 32.3061C66.5574 32.3061 61.2181 33.3773 59.6924 32.3703C59.6924 32.3703 59.529 23.4293 59.6924 22.5409C59.8557 21.6529 61.2181 18.0409 61.5453 17.6852C61.8726 17.33 64.71 16.9748 64.71 16.9748V16.9753Z" fill="white"/>
        <path d="M63.9536 13.9477C63.9536 13.9477 63.9652 14.0146 63.9866 14.1281C64.0881 14.673 64.4782 16.4796 64.7416 16.9767C65.06 17.5769 63.6511 19.4914 62.2947 19.258C61.8912 19.1883 62.6359 17.4988 62.6001 17.3198C62.5316 16.9771 62.4385 16.5099 62.3436 16.0305C62.2901 15.7604 62.2356 15.4861 62.1844 15.2285C62.0392 14.4963 61.921 13.8975 61.921 13.8975L63.9536 13.9481V13.9477Z" fill="#BD6B4F"/>
        <path d="M63.9866 14.1285C63.9657 14.0151 63.9536 13.9481 63.9536 13.9481L61.921 13.8975C61.921 13.8975 62.0392 14.4963 62.1844 15.2285C62.2351 15.4847 62.2891 15.7572 62.3427 16.0263C62.6564 15.9803 62.9845 15.8283 63.3131 15.5414C63.6715 15.2285 63.9066 14.8529 64.0481 14.4517C64.023 14.3238 64.002 14.2131 63.9866 14.1285Z" fill="#A1543A"/>
        <path d="M62.5856 9.3433C62.5856 9.3433 63.5435 9.23311 64.144 10.0072C64.7444 10.7813 65.3919 13.1757 63.9001 14.4775C62.4083 15.7792 60.9342 14.3059 60.7159 12.7433C60.4971 11.1811 60.4124 9.28658 62.5856 9.3433Z" fill="#BD6B4F"/>
        <path d="M60.2747 12.7199C60.453 13.0649 60.7518 13.2559 60.9422 13.1467C61.1325 13.0374 61.1428 12.6687 60.965 12.3238C60.7867 11.9788 60.4879 11.7877 60.2975 11.897C60.1067 12.0062 60.0969 12.3749 60.2747 12.7199Z" fill="#BD6B4F"/>
        <path d="M62.4786 9.08655C62.4786 9.08655 63.7586 11.3633 64.6742 11.4688C65.5897 11.5739 65.7098 12.7836 65.7098 12.7836C65.7098 12.7836 65.3826 9.99594 64.4759 9.45848C63.5696 8.92103 62.4781 9.08655 62.4781 9.08655H62.4786Z" fill="black"/>
        <path d="M64.434 12.0413C64.3595 12.4458 64.507 12.8345 64.7663 12.8875C65.0256 12.9405 65.2983 12.6378 65.3728 12.2338C65.4473 11.8293 65.2974 11.4588 65.0381 11.4058C64.7789 11.3528 64.5084 11.6373 64.434 12.0418V12.0413Z" fill="#BD6B4F"/>
        <path d="M58.1917 31.2989L64.2064 31.4514L64.5163 23.1172L58.1489 23.1372L58.1917 31.2989Z" fill="#BA4A09"/>
        <path d="M58.175 26.6823C58.1904 26.6498 58.6479 26.8757 59.0082 26.7962C59.0803 26.7804 58.8146 26.5619 58.7792 26.4973C58.7745 26.4884 58.2411 26.1523 58.2853 25.9222C58.3296 25.6925 58.788 25.8403 58.788 25.8403C58.788 25.8403 60.0843 26.4373 60.2677 26.6219C60.4506 26.806 60.5279 26.9441 60.5395 26.9613C60.6191 26.9859 60.688 27.004 60.7392 27.0105C61.9317 27.1635 63.8792 26.892 66.8464 26.4261L66.8497 24.871C67.4781 24.9082 68.5751 24.7989 69.0811 24.7422C69.0546 25.9282 69.0695 27.985 68.8158 28.3774C68.6375 28.6527 67.0713 28.8377 65.3286 28.9707C63.1079 29.1408 62.5256 29.0139 60.5973 28.8795C60.0131 28.8363 59.2107 29.0148 58.9058 29.0167C58.4529 29.0195 58.2937 29.0702 58.0647 28.8321C57.8715 28.6317 57.8944 28.138 57.9265 27.8325C57.987 27.2537 58.0061 27.0319 58.175 26.6823Z" fill="#BD6B4F"/>
        <path d="M66.7724 17.1898C66.7724 17.1898 68.0552 17.4246 68.678 18.5655C69.089 19.3177 69.527 22.8009 69.392 25.3901C68.5239 25.206 67.0666 25.1725 66.1738 25.1693C66.2078 22.8493 66.3363 17.1121 66.7729 17.1902L66.7724 17.1898Z" fill="#E2E8F0"/>
        <path d="M55.0862 22.0358C55.0862 22.0358 52.0268 18.2532 51.4264 17.6585C50.8255 17.0643 48.3781 15.3297 48.3073 15.5124C48.2366 15.6956 49.6362 17.0611 49.6167 17.1118C49.5971 17.1624 49.3714 17.5544 49.2908 17.7627C49.2103 17.971 49.1894 18.4721 49.2578 18.627C49.3267 18.7822 49.8233 19.0459 50.1031 19.1542C50.3828 19.2625 50.785 19.2044 51.1196 19.5033C51.4543 19.8023 54.1209 23.7509 54.1209 23.7509L55.0862 22.0353V22.0358Z" fill="#BD6B4F"/>
    </g>
    <defs>
        <clipPath id="clip0_2124_11497">
            <rect width="35.818" height="50.5432" fill="white" transform="translate(21.64 12.0801)"/>
        </clipPath>
        <clipPath id="clip1_2124_11497">
            <rect width="25.8686" height="55.7169" fill="white" transform="translate(48.3046 8.10156)"/>
        </clipPath>
    </defs>
</svg>
