<?xml version="1.0" encoding="UTF-8"?><svg id="Layer_1" xmlns="http://www.w3.org/2000/svg" viewBox="0 0 367.85 361.77"><defs><style>.cls-1{fill:#fff;}</style></defs><path class="cls-1" d="m249.95,91.54H118.06c-12.87,0-23.41,10.53-23.41,23.41v131.88c0,12.87,10.53,23.41,23.41,23.41h131.88c12.87,0,23.41-10.53,23.41-23.41V114.94c0-12.87-10.53-23.41-23.41-23.41Zm-66.89,31.79c0-1.61,1.35-2.9,2.96-2.79,14.77,1.02,26.02,9.44,31.37,14.24,1.28,1.15,1.23,3.17-.11,4.25l-29.67,24.03c-1.82,1.48-4.55.18-4.55-2.17v-37.56Zm-46.23,10.69c0-1.44.58-2.75,1.53-3.69s2.25-1.53,3.69-1.53h24.78c1.45,0,2.63,1.18,2.63,2.63v39.22c0,1.22-.84,2.29-2.04,2.56l-27.37,6.32c-1.65.38-3.22-.87-3.22-2.56v-42.94Zm81.6,88.04c-.91,1.06-1.86,2.09-2.85,3.07-9.96,9.96-23.72,16.12-38.92,16.12h-33.79c-1.73,0-3.3-.7-4.43-1.84s-1.84-2.7-1.84-4.43v-38.45c0-1.5,1.04-2.81,2.5-3.15l35.62-8.22c.95-.22,1.95,0,2.71.6l40.52,31.66c1.45,1.13,1.67,3.24.47,4.64Zm12.97-42.73c0,8.06-2.42,15.56-6.57,21.81-.74,1.12-2.28,1.35-3.34.53l-27.58-21.55c-1.17-.91-1.19-2.68-.03-3.61l26.27-21.27c1.01-.82,2.5-.65,3.28.39,5,6.59,7.97,14.8,7.97,23.71h0Z"/></svg>