<svg xmlns="http://www.w3.org/2000/svg" xmlns:xlink="http://www.w3.org/1999/xlink" id="Layer_1" viewBox="94.65 91.53 908.82 178.71"><defs><style>.cls-1{fill:url(#Dégradé_sans_nom_11);}</style><linearGradient id="Dégradé_sans_nom_11" x1="159.26" y1="151.4" x2="273.8" y2="287.9" gradientUnits="userSpaceOnUse"><stop offset="0" stop-color="#27b2ff"/><stop offset="1" stop-color="#2732ff"/></linearGradient></defs><g><path d="m379.65,145.24c7.42,3.82,13.15,9.26,17.19,16.32,4.04,7.06,6.06,15.26,6.06,24.59s-2.02,17.48-6.06,24.45c-4.04,6.98-9.77,12.37-17.19,16.19-7.42,3.82-16.01,5.73-25.79,5.73h-32.51v-93.01h32.51c9.77,0,18.37,1.91,25.79,5.73Zm-3.8,63.43c5.33-5.33,8-12.84,8-22.52s-2.67-17.26-8-22.72c-5.33-5.46-12.88-8.2-22.65-8.2h-13.19v61.43h13.19c9.77,0,17.32-2.67,22.65-8Z"/><path d="m416.82,146.77c-2.18-2.09-3.26-4.68-3.26-7.8s1.09-5.71,3.26-7.79c2.18-2.09,4.91-3.13,8.2-3.13s6.02,1.05,8.19,3.13c2.18,2.09,3.27,4.69,3.27,7.79s-1.09,5.71-3.27,7.8c-2.18,2.09-4.91,3.13-8.19,3.13s-6.02-1.04-8.2-3.13Zm17.39,11.93v73.82h-18.66v-73.82h18.66Z"/><path d="m482.05,215.33l18.66-56.63h19.85l-27.32,73.82h-22.65l-27.18-73.82h19.99l18.66,56.63Z"/><path d="m597.85,201.2h-53.97c.44,5.33,2.31,9.51,5.6,12.53,3.29,3.02,7.33,4.53,12.13,4.53,6.93,0,11.86-2.97,14.79-8.93h20.12c-2.13,7.11-6.22,12.95-12.26,17.52-6.04,4.58-13.46,6.86-22.25,6.86-7.11,0-13.48-1.58-19.12-4.73-5.64-3.15-10.04-7.62-13.19-13.39-3.15-5.77-4.73-12.44-4.73-19.99s1.55-14.35,4.66-20.12c3.11-5.77,7.46-10.21,13.06-13.33,5.6-3.11,12.04-4.66,19.32-4.66s13.3,1.51,18.86,4.53c5.55,3.02,9.86,7.31,12.93,12.86,3.07,5.55,4.6,11.93,4.6,19.12,0,2.67-.18,5.06-.53,7.2Zm-18.79-12.53c-.09-4.8-1.82-8.64-5.2-11.53-3.38-2.89-7.51-4.33-12.39-4.33-4.62,0-8.51,1.4-11.66,4.2-3.16,2.8-5.09,6.69-5.8,11.66h35.05Z"/><path d="m638.69,160.96c3.86-2.22,8.28-3.33,13.26-3.33v19.59h-4.93c-5.86,0-10.28,1.38-13.26,4.13-2.98,2.75-4.46,7.55-4.46,14.39v36.78h-18.66v-73.82h18.66v11.46c2.4-3.91,5.53-6.97,9.39-9.2Z"/><path d="m675.14,230.45c-4.8-2.18-8.59-5.13-11.39-8.86-2.8-3.73-4.33-7.86-4.6-12.39h18.79c.35,2.84,1.75,5.2,4.2,7.06,2.44,1.87,5.48,2.8,9.13,2.8s6.33-.71,8.33-2.13c2-1.42,3-3.24,3-5.46,0-2.4-1.22-4.2-3.67-5.4-2.44-1.2-6.33-2.51-11.66-3.93-5.51-1.33-10.02-2.71-13.53-4.13-3.51-1.42-6.53-3.6-9.06-6.53-2.53-2.93-3.8-6.88-3.8-11.86,0-4.08,1.18-7.82,3.53-11.19,2.35-3.38,5.73-6.04,10.13-8,4.4-1.95,9.57-2.93,15.52-2.93,8.79,0,15.81,2.2,21.05,6.6,5.24,4.4,8.13,10.33,8.66,17.79h-17.86c-.27-2.93-1.49-5.26-3.66-7-2.18-1.73-5.09-2.6-8.73-2.6-3.38,0-5.98.62-7.79,1.87-1.82,1.25-2.73,2.98-2.73,5.2,0,2.49,1.24,4.38,3.73,5.66,2.49,1.29,6.35,2.6,11.59,3.93,5.33,1.33,9.73,2.71,13.19,4.13,3.46,1.42,6.46,3.62,9,6.6,2.53,2.98,3.84,6.91,3.93,11.79,0,4.26-1.18,8.08-3.53,11.46-2.35,3.38-5.73,6.02-10.13,7.93s-9.53,2.87-15.39,2.87-11.46-1.09-16.26-3.26Z"/><path d="m735.7,146.77c-2.18-2.09-3.26-4.68-3.26-7.8s1.09-5.71,3.26-7.79c2.18-2.09,4.91-3.13,8.2-3.13s6.02,1.05,8.19,3.13c2.18,2.09,3.27,4.69,3.27,7.79s-1.09,5.71-3.27,7.8c-2.18,2.09-4.91,3.13-8.19,3.13s-6.02-1.04-8.2-3.13Zm17.39,11.93v73.82h-18.66v-73.82h18.66Z"/><path d="m804,174.02h-12.93v58.5h-18.92v-58.5h-8.39v-15.32h8.39v-3.73c0-9.06,2.58-15.72,7.73-19.99,5.15-4.26,12.93-6.26,23.32-6v15.72c-4.53-.09-7.69.67-9.46,2.27-1.78,1.6-2.67,4.49-2.67,8.66v3.07h12.93v15.32Z"/><path d="m816.06,146.77c-2.18-2.09-3.26-4.68-3.26-7.8s1.09-5.71,3.26-7.79c2.18-2.09,4.91-3.13,8.2-3.13s6.02,1.05,8.19,3.13c2.18,2.09,3.27,4.69,3.27,7.79s-1.09,5.71-3.27,7.8c-2.18,2.09-4.91,3.13-8.19,3.13s-6.02-1.04-8.2-3.13Zm17.39,11.93v73.82h-18.66v-73.82h18.66Z"/><path d="m918.59,201.2h-53.97c.44,5.33,2.31,9.51,5.6,12.53,3.29,3.02,7.33,4.53,12.13,4.53,6.93,0,11.86-2.97,14.79-8.93h20.12c-2.13,7.11-6.22,12.95-12.26,17.52-6.04,4.58-13.46,6.86-22.25,6.86-7.11,0-13.48-1.58-19.12-4.73-5.64-3.15-10.04-7.62-13.19-13.39-3.15-5.77-4.73-12.44-4.73-19.99s1.55-14.35,4.66-20.12c3.11-5.77,7.46-10.21,13.06-13.33,5.6-3.11,12.04-4.66,19.32-4.66s13.3,1.51,18.86,4.53c5.55,3.02,9.86,7.31,12.93,12.86,3.07,5.55,4.6,11.93,4.6,19.12,0,2.67-.18,5.06-.53,7.2Zm-18.79-12.53c-.09-4.8-1.82-8.64-5.2-11.53-3.38-2.89-7.51-4.33-12.39-4.33-4.62,0-8.51,1.4-11.66,4.2-3.16,2.8-5.09,6.69-5.8,11.66h35.05Z"/><path d="m931.05,175.49c2.98-5.77,7.04-10.21,12.19-13.33,5.15-3.11,10.88-4.66,17.19-4.66,4.8,0,9.37,1.04,13.73,3.13,4.35,2.09,7.82,4.86,10.39,8.33v-35.05h18.92v98.61h-18.92v-10.93c-2.31,3.64-5.55,6.58-9.73,8.79-4.18,2.22-9.02,3.33-14.52,3.33-6.22,0-11.91-1.6-17.06-4.8-5.15-3.2-9.22-7.71-12.19-13.53-2.98-5.82-4.46-12.5-4.46-20.06s1.49-14.08,4.46-19.85Zm50.97,8.46c-1.78-3.24-4.18-5.73-7.2-7.46-3.02-1.73-6.26-2.6-9.73-2.6s-6.66.85-9.59,2.53c-2.93,1.69-5.31,4.15-7.13,7.4-1.82,3.24-2.73,7.09-2.73,11.53s.91,8.33,2.73,11.66c1.82,3.33,4.22,5.89,7.2,7.66,2.97,1.78,6.15,2.67,9.53,2.67s6.71-.87,9.73-2.6c3.02-1.73,5.42-4.22,7.2-7.46,1.78-3.24,2.67-7.13,2.67-11.66s-.89-8.42-2.67-11.66Z"/></g><path class="cls-1" d="m249.95,91.54H118.06c-12.87,0-23.41,10.53-23.41,23.41v131.88c0,12.87,10.53,23.41,23.41,23.41h131.88c12.87,0,23.41-10.53,23.41-23.41V114.94c0-12.87-10.53-23.41-23.41-23.41Zm-66.89,31.79c0-1.61,1.35-2.9,2.96-2.79,14.77,1.02,26.02,9.44,31.37,14.24,1.28,1.15,1.23,3.17-.11,4.25l-29.67,24.03c-1.82,1.48-4.55.18-4.55-2.17v-37.56Zm-46.23,10.69c0-1.44.58-2.75,1.53-3.69.94-.94,2.25-1.53,3.69-1.53h24.78c1.45,0,2.63,1.18,2.63,2.63v39.22c0,1.22-.84,2.29-2.04,2.56l-27.37,6.32c-1.65.38-3.22-.87-3.22-2.56v-42.95Zm81.6,88.04c-.91,1.06-1.86,2.09-2.85,3.07-9.96,9.96-23.72,16.12-38.92,16.12h-33.79c-1.73,0-3.3-.7-4.43-1.84-1.13-1.13-1.84-2.7-1.84-4.43v-38.45c0-1.5,1.04-2.81,2.5-3.15l35.62-8.22c.95-.22,1.95,0,2.71.6l40.52,31.66c1.45,1.13,1.67,3.24.47,4.64Zm12.97-42.73c0,8.06-2.42,15.56-6.57,21.81-.74,1.12-2.28,1.35-3.34.53l-27.58-21.55c-1.17-.91-1.19-2.68-.03-3.61l26.27-21.27c1.01-.82,2.5-.65,3.28.39,5,6.59,7.97,14.8,7.97,23.71h0Z"/></svg>